<svg width="64" height="64" viewBox="0 0 64 64" fill="none" xmlns="http://www.w3.org/2000/svg">
<path d="M64 32C64 37.0523 59.7075 37.6712 57.6223 41.92C56.0129 45.1992 56.9806 52.3227 54.4 54.8526C51.7651 57.4357 45.5636 55.4066 42.1646 56.96C38.1178 58.8094 36.7401 64 32 64C27.2599 64 25.4868 58.8094 21.44 56.96C18.041 55.4066 12.2349 57.4357 9.6 54.8526C7.01935 52.3227 7.59165 45.1992 5.98232 41.92C3.89713 37.6712 0 37.0523 0 32C0 27.3247 4.52263 24.4276 6.32459 20.4239C7.97282 16.7619 6.76981 11.9219 9.6 9.14742C12.0283 6.76692 18.3544 6.31432 21.44 4.8C25.6888 2.71481 26.9477 0 32 0C36.3048 0 39.451 4.21867 43.2 5.76C47.0465 7.34141 51.477 6.28191 54.4 9.14742C57.2302 11.9219 57.5518 18.7379 59.2 22.4C61.002 26.4036 64 27.3247 64 32Z" fill="#E4D8F7"/>
<path d="M31.84 35.52C31.6667 35.7067 31.3933 35.9 31.02 36.1C30.6467 36.2867 30.2133 36.46 29.72 36.62C29.24 36.78 28.7467 36.9067 28.24 37C27.7333 37.1067 27.2533 37.16 26.8 37.16C25.6 37.16 24.52 36.9867 23.56 36.64C22.6 36.28 21.78 35.7867 21.1 35.16C20.42 34.52 19.9 33.7667 19.54 32.9C19.18 32.0333 19 31.0867 19 30.06C19 28.7133 19.2 27.5467 19.6 26.56C20.0133 25.56 20.5667 24.7333 21.26 24.08C21.9667 23.4133 22.7733 22.92 23.68 22.6C24.6 22.28 25.56 22.12 26.56 22.12C27.5067 22.12 28.3733 22.2267 29.16 22.44C29.9467 22.64 30.6133 22.8933 31.16 23.2L30.22 25.9C29.98 25.7667 29.66 25.6333 29.26 25.5C28.86 25.3667 28.4533 25.26 28.04 25.18C27.6267 25.0867 27.26 25.04 26.94 25.04C26.14 25.04 25.4333 25.14 24.82 25.34C24.2067 25.54 23.6867 25.84 23.26 26.24C22.8467 26.64 22.5333 27.14 22.32 27.74C22.1067 28.3267 22 29.0133 22 29.8C22 30.4933 22.12 31.12 22.36 31.68C22.6 32.2267 22.9333 32.6933 23.36 33.08C23.8 33.4667 24.3133 33.76 24.9 33.96C25.5 34.16 26.16 34.26 26.88 34.26C27.2933 34.26 27.6733 34.2333 28.02 34.18C28.3667 34.1133 28.66 34.0133 28.9 33.88V32.1H26.36V29.3H31.84V35.52ZM34.3944 32.52C34.3944 31.6267 34.601 30.8267 35.0144 30.12C35.441 29.4133 36.0344 28.86 36.7944 28.46C37.5544 28.0467 38.4277 27.84 39.4144 27.84C40.4144 27.84 41.281 28.0467 42.0144 28.46C42.7477 28.86 43.3077 29.4133 43.6944 30.12C44.0944 30.8267 44.2944 31.6267 44.2944 32.52C44.2944 33.4133 44.0944 34.22 43.6944 34.94C43.3077 35.6467 42.7477 36.2067 42.0144 36.62C41.281 37.0333 40.401 37.24 39.3744 37.24C38.4144 37.24 37.5544 37.0533 36.7944 36.68C36.0477 36.3067 35.461 35.7667 35.0344 35.06C34.6077 34.3533 34.3944 33.5067 34.3944 32.52ZM37.2144 32.54C37.2144 32.9933 37.3077 33.4067 37.4944 33.78C37.681 34.14 37.9344 34.4267 38.2544 34.64C38.5744 34.8533 38.9344 34.96 39.3344 34.96C39.7744 34.96 40.1544 34.8533 40.4744 34.64C40.7944 34.4267 41.041 34.14 41.2144 33.78C41.3877 33.4067 41.4744 32.9933 41.4744 32.54C41.4744 32.0733 41.3877 31.66 41.2144 31.3C41.041 30.94 40.7944 30.6533 40.4744 30.44C40.1544 30.2267 39.7744 30.12 39.3344 30.12C38.9344 30.12 38.5744 30.2267 38.2544 30.44C37.9344 30.6533 37.681 30.94 37.4944 31.3C37.3077 31.66 37.2144 32.0733 37.2144 32.54Z" fill="#363636"/>
</svg>
