<svg width="36" height="40" viewBox="0 0 36 40" fill="none" xmlns="http://www.w3.org/2000/svg">
<path d="M27.6723 29.0638C28.2442 29.9807 29.6622 29.4646 29.5109 28.3946L27.1254 11.5214C27.0364 10.8921 26.3905 10.5043 25.7932 10.7217L19.1603 13.1359C18.563 13.3533 18.3175 14.0655 18.6539 14.6048L27.6723 29.0638Z" fill="#7F94E2"/>
<path d="M28.6723 26.0638C29.2442 26.9807 30.6622 26.4646 30.5109 25.3946L28.1254 8.52142C28.0364 7.89205 27.3905 7.50432 26.7932 7.72172L20.1603 10.1359C19.563 10.3533 19.3175 11.0655 19.6539 11.6048L28.6723 26.0638Z" fill="#CDD6FA"/>
<path d="M23.6799 35.3018C24.6951 35.663 25.4849 34.3839 24.7072 33.638L12.5801 22.0065C12.1206 21.5657 11.3716 21.661 11.037 22.2028L7.33239 28.2028C6.99785 28.7446 7.24818 29.4569 7.84813 29.6703L23.6799 35.3018Z" fill="#7F94E2"/>
<path d="M24.015 34.0481C25.0093 34.4711 25.8749 33.235 25.1372 32.4453L13.505 19.9919C13.0712 19.5273 12.3197 19.5802 11.9551 20.1009L7.90647 25.8829C7.54189 26.4036 7.74923 27.1278 8.33413 27.3767L24.015 34.0481Z" fill="#CDD6FA"/>
</svg>
