<svg width="40" height="48" viewBox="0 0 40 48" fill="none" xmlns="http://www.w3.org/2000/svg">
<path d="M10.025 36.2945C9.45102 37.2016 8.04552 36.6901 8.18893 35.6262L11.206 13.2438C11.2912 12.6112 11.9393 12.2194 12.539 12.4377L21.5979 15.7349C22.1977 15.9532 22.4422 16.6699 22.101 17.2092L10.025 36.2945Z" fill="#B28FEA"/>
<path d="M9.02502 33.2945C8.45102 34.2016 7.04552 33.6901 7.18893 32.6262L10.206 10.2438C10.2912 9.61124 10.9393 9.21939 11.539 9.43769L20.5979 12.7349C21.1977 12.9532 21.4422 13.6699 21.101 14.2092L9.02502 33.2945Z" fill="#DECEFF"/>
<path d="M14.5764 41.6994C13.5653 42.0523 12.782 40.7837 13.5504 40.0377L29.5763 24.4812C30.035 24.036 30.7879 24.1295 31.1237 24.6734L36.1853 32.871C36.5211 33.4149 36.2674 34.1299 35.6639 34.3406L14.5764 41.6994Z" fill="#B28FEA"/>
<path d="M14.1618 40.5077C13.1713 40.9216 12.3134 39.6964 13.0411 38.9072L28.3505 22.3031C28.7832 21.8338 29.5387 21.8845 29.9048 22.4074L35.4343 30.3042C35.8004 30.8271 35.5896 31.5544 35.0007 31.8005L14.1618 40.5077Z" fill="#DECEFF"/>
</svg>
